<svg xmlns="http://www.w3.org/2000/svg" viewBox="0 0 500 500" width="500" height="500" class="illustration"><g id="Layer_3" data-name="Layer 3"><rect x="223.69" y="433.77" width="46.66" height="15.32" rx="7.66" fill="#3fe2fd"></rect><path d="M325.61,281.24v-30.6H270V138.26l80.68-2.36V102H163.23v98h67.91V310.86H173.07V346.6l-9.84-13.27V390h187.4V255.14Z" fill="#3fe2fd"></path><rect x="85.1" y="201.71" width="17.36" height="104.6" fill="#3fe2fd"></rect><rect x="269.95" y="145.33" width="19.4" height="99.15" fill="#3fe2fd"></rect><path d="M129.17,206.88a7,7,0,0,1-7-7V71.33A44.49,44.49,0,0,1,166.6,26.89H340.43a44.49,44.49,0,0,1,44.44,44.44V134.2a7,7,0,0,1-14,0V71.33a30.47,30.47,0,0,0-30.44-30.44H166.6a30.47,30.47,0,0,0-30.43,30.44V199.88A7,7,0,0,1,129.17,206.88Z" fill="#251ac7"></path><path d="M340.43,473.11H166.6a44.49,44.49,0,0,1-44.43-44.44V313.31a7,7,0,0,1,14,0V428.67a30.47,30.47,0,0,0,30.43,30.44H340.43a30.47,30.47,0,0,0,30.44-30.44V254a7,7,0,0,1,14,0V428.67A44.49,44.49,0,0,1,340.43,473.11Z" fill="#251ac7"></path><path d="M278.56,72.79H225.91a35,35,0,0,1-35-35V35a7,7,0,0,1,7-7H306.56a7,7,0,0,1,7,7v2.79A35,35,0,0,1,278.56,72.79ZM205.33,42a21,21,0,0,0,20.58,16.79h52.65A21,21,0,0,0,299.14,42Z" fill="#251ac7"></path><path d="M374.49,420.49H138.15a7,7,0,1,1,0-14H374.49a7,7,0,0,1,0,14Z" fill="#251ac7"></path><path d="M324.91,288.08a7,7,0,0,1-7-7V258.2H269.15a7,7,0,0,1-7-7V137.77a7,7,0,0,1,7-7H416.58a7,7,0,0,1,7,7V251.2a7,7,0,0,1-7,7H356.94l-27,27.76A7,7,0,0,1,324.91,288.08ZM276.15,244.2h48.77a7,7,0,0,1,7,7v12.64L349,246.32a7,7,0,0,1,5-2.12h55.59V144.77H276.15Z" fill="#251ac7"></path><path d="M175.09,350.18a7,7,0,0,1-5-2.11l-27-27.76H83.42a7,7,0,0,1-7-7V199.88a7,7,0,0,1,7-7H230.85a7,7,0,0,1,7,7V313.31a7,7,0,0,1-7,7H182.08v22.87a7,7,0,0,1-4.36,6.49A6.91,6.91,0,0,1,175.09,350.18ZM90.42,306.31H146a7,7,0,0,1,5,2.12L168.08,326V313.31a7,7,0,0,1,7-7h48.77V206.88H90.42Z" fill="#251ac7"></path><path d="M370.09,223a7,7,0,0,1-6.31-4l-19.34-40-21.65,40.25a7,7,0,0,1-12.33-6.64l28.15-52.32a7,7,0,0,1,12.47.27l25.3,52.32a7,7,0,0,1-3.25,9.35A6.89,6.89,0,0,1,370.09,223Z" fill="#251ac7"></path><path d="M355.28,209.58H329.82a7,7,0,0,1,0-14h25.46a7,7,0,0,1,0,14Z" fill="#251ac7"></path><path d="M155.65,292.64c-18.73,0-34-16.36-34-36.46s15.23-36.45,34-36.45,33.95,16.35,33.95,36.45S174.37,292.64,155.65,292.64Zm0-58.91c-11,0-20,10.07-20,22.45s8.95,22.46,20,22.46,19.95-10.08,19.95-22.46S166.65,233.73,155.65,233.73Z" fill="#251ac7"></path><path d="M185.58,292.64a6.94,6.94,0,0,1-5-2.07c-5.29-5.32-22.79-23.18-26.23-29.64a7,7,0,0,1,12.35-6.59c1.7,3.18,13.68,16.16,23.81,26.37a7,7,0,0,1-5,11.93Z" fill="#251ac7"></path></g></svg>